<svg width="234" height="81" viewBox="0 0 234 81" fill="none" xmlns="http://www.w3.org/2000/svg">
<path d="M26.5588 25.1195C27.7896 25.1195 28.7874 24.1217 28.7874 22.8908C28.7874 21.6599 27.7896 20.6621 26.5588 20.6621C25.3279 20.6621 24.3301 21.6599 24.3301 22.8908C24.3301 24.1217 25.3279 25.1195 26.5588 25.1195Z" fill="#1D6B5C"/>
<path d="M23.0678 31.8146C24.4591 31.8146 25.5869 30.6868 25.5869 29.2955C25.5869 27.9042 24.4591 26.7764 23.0678 26.7764C21.6766 26.7764 20.5487 27.9042 20.5487 29.2955C20.5487 30.6868 21.6766 31.8146 23.0678 31.8146Z" fill="#1D6B5C"/>
<path d="M18.8948 37.941C20.3663 37.941 21.5591 36.7481 21.5591 35.2766C21.5591 33.8052 20.3663 32.6123 18.8948 32.6123C17.4233 32.6123 16.2305 33.8052 16.2305 35.2766C16.2305 36.7481 17.4233 37.941 18.8948 37.941Z" fill="#1D6B5C"/>
<path d="M29.0773 17.6751C30.025 17.6751 30.7933 16.9068 30.7933 15.9591C30.7933 15.0114 30.025 14.2432 29.0773 14.2432C28.1296 14.2432 27.3613 15.0114 27.3613 15.9591C27.3613 16.9068 28.1296 17.6751 29.0773 17.6751Z" fill="#1D6B5C"/>
<path d="M30.4114 9.92745C30.9924 9.92745 31.4635 9.45641 31.4635 8.87535C31.4635 8.29428 30.9924 7.82324 30.4114 7.82324C29.8303 7.82324 29.3593 8.29428 29.3593 8.87535C29.3593 9.45641 29.8303 9.92745 30.4114 9.92745Z" fill="#1D6B5C"/>
<path d="M6.32243 55.3851C7.5533 55.3851 8.55111 54.3873 8.55111 53.1564C8.55111 51.9255 7.5533 50.9277 6.32243 50.9277C5.09157 50.9277 4.09375 51.9255 4.09375 53.1564C4.09375 54.3873 5.09157 55.3851 6.32243 55.3851Z" fill="#1D6B5C"/>
<path d="M9.87068 49.3273C11.262 49.3273 12.3898 48.1995 12.3898 46.8082C12.3898 45.4169 11.262 44.2891 9.87068 44.2891C8.47941 44.2891 7.35156 45.4169 7.35156 46.8082C7.35156 48.1995 8.47941 49.3273 9.87068 49.3273Z" fill="#1D6B5C"/>
<path d="M14.0452 43.4947C15.5167 43.4947 16.7095 42.3018 16.7095 40.8304C16.7095 39.3589 15.5167 38.166 14.0452 38.166C12.5737 38.166 11.3809 39.3589 11.3809 40.8304C11.3809 42.3018 12.5737 43.4947 14.0452 43.4947Z" fill="#1D6B5C"/>
<path d="M3.86062 61.8606C4.80832 61.8606 5.57658 61.0924 5.57658 60.1447C5.57658 59.197 4.80832 58.4287 3.86062 58.4287C2.91291 58.4287 2.14465 59.197 2.14465 60.1447C2.14465 61.0924 2.91291 61.8606 3.86062 61.8606Z" fill="#1D6B5C"/>
<path d="M2.53062 68.28C3.11168 68.28 3.58272 67.8089 3.58272 67.2279C3.58272 66.6468 3.11168 66.1758 2.53062 66.1758C1.94956 66.1758 1.47852 66.6468 1.47852 67.2279C1.47852 67.8089 1.94956 68.28 2.53062 68.28Z" fill="#1D6B5C"/>
<path d="M7.79377 28.7422H20.8754V29.9039H7.79377C7.4737 29.9039 7.21289 29.6431 7.21289 29.3231C7.21289 29.003 7.4737 28.7422 7.79377 28.7422Z" fill="#1D6B5C"/>
<path d="M13.3096 22.3105H26.3913V23.4723H13.3096C12.9896 23.4723 12.7288 23.2115 12.7288 22.8914C12.7288 22.5713 12.9896 22.3105 13.3096 22.3105Z" fill="#1D6B5C"/>
<path d="M17.2821 15.3789H30.3637V16.5407H17.2821C16.962 16.5407 16.7012 16.2799 16.7012 15.9598C16.7012 15.6397 16.962 15.3789 17.2821 15.3789Z" fill="#1D6B5C"/>
<path d="M17.1066 53.7402H5.23712V52.5785H17.1066C17.4267 52.5785 17.6875 52.8393 17.6875 53.1594C17.6875 53.4794 17.4267 53.7402 17.1066 53.7402Z" fill="#1D6B5C"/>
<path d="M13.7804 60.7256H4.62864V59.5638H13.7804C14.1005 59.5638 14.3613 59.8246 14.3613 60.1447C14.3613 60.4648 14.1005 60.7256 13.7804 60.7256Z" fill="#1D6B5C"/>
<path d="M22.1202 48C24.4763 56.2923 32.9139 69.1991 11.3828 81.0005C19.5625 72.8207 24.7549 66.1762 22.1202 48Z" fill="#629B96"/>
<path d="M4.63104 35.893C0.641937 27.9207 -7.33922 11.988 15.7389 0C2.35198 13.3869 3.25589 31.003 4.63104 35.893Z" fill="#629B96"/>
<path d="M72.8566 15.3419C72.9638 15.824 72.9816 16.6454 72.9459 17.1275C72.5888 17.1275 72.2138 17.1097 71.7852 17.1097C71.5531 17.1097 70.1781 17.1097 68.4818 17.1275C68.5175 19.306 68.6603 24.4308 68.6782 25.3415C68.696 26.4308 68.2318 26.9843 67.0532 26.9843C66.1961 26.9843 64.6962 26.8593 63.9998 26.7522C63.8569 26.2701 63.7498 25.3415 63.7319 24.8058C64.6962 25.0558 65.8747 25.1987 66.2318 25.1987C66.6961 25.1987 66.8925 25.0558 66.8925 24.5201C66.8925 24.5201 66.8925 24.1094 66.7675 18.6632C65.3033 20.8595 62.5356 23.3594 59.4642 25.038C58.9464 24.7344 58.2678 23.9844 58 23.5202C61.357 22.1631 64.1784 19.5382 65.7319 17.1454C63.4284 17.1632 61.232 17.199 60.7499 17.199C60.4642 17.199 59.4642 17.2168 58.9285 17.2168C58.8214 16.6811 58.75 15.949 58.7678 15.4133C59.3214 15.449 59.8749 15.4669 60.4999 15.4669C61.1963 15.4847 64.0355 15.4669 66.6783 15.4312C66.6247 14.3241 66.589 12.967 66.4818 12.1813C66.9461 12.1456 67.9461 12.217 68.4639 12.3063C68.4461 12.9491 68.4461 14.1634 68.4461 15.4312C69.9639 15.4133 71.1602 15.3955 71.4817 15.3955L72.8566 15.3419Z" fill="#2D2D2D"/>
<path d="M78.6612 18.7175C82.6611 18.7353 88.893 18.6639 90.5537 18.6282C90.643 19.0746 90.6787 20.1996 90.6251 20.6817C88.1073 20.5746 78.3755 20.7174 76.1435 20.6996C76.0542 20.1996 75.9649 19.1818 75.9828 18.6104C76.4827 18.6461 77.6613 18.7175 78.6612 18.7175Z" fill="#2D2D2D"/>
<path d="M104.84 14.6467C105.482 14.6288 105.661 14.611 105.982 14.5395C106.375 14.7717 106.804 15.1466 107.072 15.5038C106.732 16.8073 105.697 19.4322 104.036 21.6107C104.554 22.0571 105.054 22.5035 105.5 22.9499C105.268 23.4856 104.75 24.0928 104.215 24.3963C103.84 23.9856 103.375 23.5035 102.822 23.0214C100.929 24.9856 98.6612 26.4319 96.1256 27.3069C95.6614 27.0212 94.9292 26.3427 94.5721 25.7534C96.8399 25.182 99.3398 24.0035 101.483 21.8785C100.393 21.0214 99.2148 20.1822 98.0898 19.5393C98.3577 19.1286 98.8934 18.5929 99.2505 18.3072C100.34 18.9144 101.536 19.6822 102.661 20.5214C103.911 18.8786 104.697 17.0394 104.911 16.1823L99.5541 16.2538C98.3041 17.9323 96.7506 19.4679 95.2685 20.3786C94.7328 20.1643 94.0007 19.5751 93.6971 19.1286C96.697 17.5751 99.0362 14.5038 99.9291 11.736C100.59 11.8967 101.215 12.1825 101.679 12.5574C101.411 13.236 101.036 13.9681 100.59 14.7181C104.322 14.6824 104.84 14.6288 104.84 14.6288V14.6467ZM106.947 12.2896C107.34 12.8253 107.839 13.8788 108.054 14.4681C107.857 14.6288 107.429 14.8074 107.107 14.8609C106.84 14.1645 106.429 13.3074 106 12.6646C106.304 12.5217 106.661 12.361 106.947 12.2896ZM109.982 13.736C109.768 13.8967 109.357 14.0753 109 14.1467C108.732 13.4146 108.322 12.611 107.929 12.0218C108.214 11.861 108.572 11.6825 108.857 11.6289C109.25 12.1467 109.75 13.1289 109.982 13.736Z" fill="#2D2D2D"/>
<path d="M114.37 18.7175C118.37 18.7353 124.602 18.6639 126.262 18.6282C126.352 19.0746 126.387 20.1996 126.334 20.6817C123.816 20.5746 114.084 20.7174 111.852 20.6996C111.763 20.1996 111.674 19.1818 111.692 18.6104C112.191 18.6461 113.37 18.7175 114.37 18.7175Z" fill="#2D2D2D"/>
<path d="M142.981 22.3784C142.749 22.8963 142.195 23.6641 141.731 24.0748C140.802 23.0927 139.785 22.2177 138.267 21.0927C136.66 23.3605 134.035 25.664 131.571 26.8604C131.017 26.5568 130.338 25.9319 129.928 25.3426C132.713 24.2891 135.178 22.1641 136.767 20.0214C135.392 19.1107 133.82 18.2357 132.428 17.575C132.767 17.0572 133.231 16.4501 133.606 16.0929C134.66 16.6286 136.463 17.6643 137.785 18.4679C138.927 16.4858 139.677 14.2894 139.981 12.5752C140.713 12.7538 141.517 13.1823 141.874 13.4323C141.392 15.1287 140.552 17.3429 139.302 19.4857C140.659 20.4321 142.106 21.5392 142.981 22.3784Z" fill="#2D2D2D"/>
<path d="M156.317 17.2526C156.299 22.5381 156.317 25.1988 156.317 25.1988C156.317 25.8059 156.352 26.5916 156.37 27.1272C155.87 27.1987 154.781 27.1987 154.174 27.1272C154.21 26.7344 154.245 26.1451 154.281 25.2345C154.317 23.9845 154.352 21.9132 154.335 18.5918C152.567 19.6454 150.495 20.5918 148.763 21.1453C148.317 20.7703 147.621 19.9132 147.388 19.4132C149.478 19.0204 151.96 18.0026 153.835 16.7883C155.817 15.5205 157.834 13.6277 158.674 12.1992C159.174 12.5563 159.817 13.2527 160.067 13.717C159.227 14.7705 157.942 16.0562 156.317 17.2526Z" fill="#2D2D2D"/>
<path d="M171.531 17.3776C173.835 18.0561 176.263 19.0025 177.96 19.8061C177.835 20.3775 177.478 21.2525 177.156 21.681C175.567 20.8061 173.335 19.8954 171.531 19.3418C171.514 21.9667 171.514 24.4666 171.514 25.0916C171.514 25.6094 171.549 26.5558 171.585 27.2165C171.049 27.2701 169.942 27.2165 169.389 27.1451C169.442 26.5916 169.496 25.7701 169.514 25.0559C169.567 23.6452 169.639 15.5027 169.621 14.3598C169.621 13.7884 169.603 13.0028 169.514 12.3064C170.067 12.2706 171.121 12.3421 171.603 12.4135C171.567 12.9849 171.549 15.0562 171.531 17.3776ZM176.317 15.9669C175.996 15.2348 175.406 14.1991 174.996 13.5742C175.281 13.3956 175.71 13.1992 175.978 13.1099C176.353 13.6099 177.067 14.8598 177.317 15.4848C177.103 15.6455 176.692 15.8777 176.317 15.9669ZM179.406 14.5027C179.192 14.6991 178.781 14.9134 178.424 15.0384C178.085 14.3241 177.496 13.2885 177.067 12.6813C177.353 12.5028 177.763 12.2706 178.031 12.1992C178.442 12.7171 179.12 13.8777 179.406 14.5027Z" fill="#2D2D2D"/>
<path d="M185.882 20.4738V18.6881C185.09 19.4322 184.15 20.1047 183.34 20.5214C183.126 20.2059 182.727 19.7595 182.436 19.5333C183.394 19.1524 184.567 18.4262 185.376 17.6882H183.245V14.5335H185.888V13.8252H182.704V12.7181H185.888V11.6943L187.638 11.7955C187.62 11.9265 187.525 12.0098 187.275 12.0455V12.724H190.543V13.8312H187.275V14.5395H190.013V16.2716C191.001 15.2299 191.846 13.48 192.304 11.7003L193.989 12.1645C193.941 12.2776 193.822 12.361 193.608 12.3431C193.477 12.7895 193.31 13.2478 193.132 13.6943H197.667V14.9323H196.56C196.233 16.1228 195.703 17.1465 195.007 17.9858C195.78 18.5988 196.709 19.0929 197.828 19.4202C197.548 19.7 197.138 20.2595 196.953 20.6404C195.816 20.2297 194.858 19.6345 194.048 18.9262C193.144 19.7 192.037 20.2774 190.733 20.694C190.548 20.3785 190.156 19.8666 189.906 19.6048C191.179 19.2595 192.263 18.7119 193.126 17.9858C192.614 17.3905 192.203 16.7656 191.87 16.1346C191.572 16.5811 191.257 17.0096 190.912 17.3548C190.697 17.0929 190.298 16.6287 190.007 16.3787V17.6822H187.382C188.072 18.0096 189.644 18.8012 190.09 19.0512L189.346 20.0095C188.918 19.6821 188.007 19.1167 187.269 18.6703V20.4678H185.882V20.4738ZM190.864 24.4022V25.5391H197.715V26.8247H182.567V25.5391H185.192V22.8011L187.055 22.9142C187.037 23.063 186.941 23.1463 186.674 23.1761V25.5331H189.328V22.1344H183.62V20.8785H196.655V22.1344H190.864V23.2058H195.417V24.3963H190.864V24.4022ZM184.495 15.5037V16.7061H185.882V15.5037H184.495ZM188.685 15.5037H187.269V16.7061H188.685V15.5037ZM192.614 14.9264C192.929 15.6525 193.388 16.3787 194.001 17.0572C194.477 16.4442 194.828 15.7359 195.072 14.9264H192.614Z" fill="#2D2D2D"/>
<path d="M207.287 12.3846C207.221 12.5155 207.09 12.5631 206.858 12.5631C206.447 13.6702 205.953 14.7773 205.406 15.8308L205.918 15.9797C205.9 16.1106 205.787 16.1939 205.555 16.2297V27.1697H204.019V18.2236C203.471 19.051 202.894 19.8069 202.317 20.4676C202.168 20.0867 201.769 19.295 201.555 18.9141C203.055 17.2951 204.572 14.5214 205.501 11.7715L207.281 12.3846H207.287ZM217.191 16.8606H213.28C214.257 19.3664 215.888 21.8783 217.59 23.2294C217.209 23.5092 216.697 24.0568 216.417 24.4496C214.852 22.9794 213.382 20.5033 212.376 17.9141V22.6818H214.804V24.0865H212.376V27.1697H210.84V24.0865H208.429V22.6818H210.84V18.0093C209.798 20.6164 208.316 23.027 206.715 24.4972C206.453 24.1341 205.941 23.5746 205.59 23.3068C207.322 21.9556 208.971 19.4141 209.983 16.8546H206.334V15.3547H210.84V11.8727L212.757 11.9858C212.739 12.1167 212.626 12.2179 212.376 12.2477V15.3487H217.197V16.8487L217.191 16.8606Z" fill="#2D2D2D"/>
<path d="M55.0958 62.3427V44.9651C55.0958 44.002 54.7467 43.5205 53.9582 43.5205C51.5083 43.5205 48.1375 43.6107 44.5922 43.9177C44.1107 43.9598 43.9361 43.8756 44.0204 43.5686L44.6343 41.1609C44.7246 40.8118 44.8089 40.6372 45.2483 40.6794C48.0954 40.7696 49.3655 40.7696 55.9265 40.7696H60.3928C66.8273 40.7696 68.272 40.7696 71.1191 40.6794C71.5585 40.6372 71.6428 40.7696 71.5585 41.1609L71.0769 43.6589C71.0348 43.8756 70.9024 43.9659 70.4208 43.9237C66.8755 43.6167 63.8117 43.5265 61.4883 43.5265C60.6997 43.5265 60.3506 44.008 60.3506 44.9711V62.3487C60.3506 65.894 60.6576 68.9157 60.7419 71.4077H54.7467C54.8791 68.9097 55.0958 65.894 55.0958 62.3487V62.3427Z" fill="#2D2D2D"/>
<path d="M79.3051 64.1834L86.2633 48.3829C87.7079 45.0542 88.3219 42.7789 88.4965 41.25C88.5386 40.8106 91.6506 40.2869 91.777 40.5939L101.889 64.2316C102.943 66.6393 104.032 69.0048 105.218 71.4125H99.3552L96.2493 64.1894C95.7677 63.0939 95.0695 63.0518 93.7513 63.0518H84.8668C83.5546 63.0518 82.8083 63.0518 82.3689 64.1894L79.5699 71.4125H75.9824C77.1201 69.0048 78.2577 66.5971 79.3111 64.1894L79.3051 64.1834ZM85.216 60.5899H93.4443C94.0583 60.5899 94.7144 60.4996 94.4495 59.8917L89.3271 47.6365L84.2047 59.8917C83.9399 60.5056 84.596 60.5899 85.2099 60.5899H85.216Z" fill="#2D2D2D"/>
<path d="M112.654 71.406C112.787 68.9081 112.919 65.8924 112.919 62.3471V49.827C112.919 46.2817 112.787 43.26 112.654 40.768C116.549 40.9004 121.406 40.6777 123.639 40.6777C134.233 40.6777 139.97 46.9799 139.97 55.4309C139.97 63.882 134.233 71.4963 123.597 71.4963C121.497 71.4963 116.549 71.2796 112.654 71.406ZM123.164 69.1729C131.176 69.1729 134.721 65.3206 134.721 57.9229C134.721 49.5622 130.17 42.9951 121.412 42.9951C119.179 42.9951 118.174 43.5188 118.174 45.3126V66.5004C118.174 68.4265 119.793 69.1729 123.164 69.1729Z" fill="#2D2D2D"/>
<path d="M148.776 64.1834L155.734 48.3829C157.179 45.0542 157.793 42.7789 157.967 41.25C158.009 40.8106 161.121 40.2869 161.248 40.5939L171.36 64.2316C172.413 66.6393 173.503 69.0048 174.689 71.4125H168.826L165.72 64.1894C165.238 63.0939 164.54 63.0518 163.222 63.0518H154.338C153.025 63.0518 152.279 63.0518 151.84 64.1894L149.041 71.4125H145.453C146.591 69.0048 147.728 66.5971 148.782 64.1894L148.776 64.1834ZM154.687 60.5899H162.915C163.529 60.5899 164.185 60.4996 163.92 59.8917L158.798 47.6365L153.675 59.8917C153.411 60.5056 154.067 60.5899 154.681 60.5899H154.687Z" fill="#2D2D2D"/>
<path d="M180.29 69.1313L180.772 67.2954C181.867 63.1783 182.566 69.1794 190.619 69.1794C194.514 69.1794 196.223 67.3857 196.223 64.9359C196.223 62.793 194.911 61.8721 191.799 59.9459L187.556 57.2733C182.83 54.2938 180.904 52.4158 180.904 49.1293C180.904 43.7902 186.159 40.0703 191.582 40.0703C194.995 40.0703 199.155 41.5149 198.848 42.478L198.234 44.362C197.054 48.1241 196.657 43.0077 189.741 43.0077C186.46 43.0077 184.967 44.669 184.967 46.9022C184.967 48.8705 186.147 50.0081 189.084 51.8079L193.683 54.655C198.324 57.5442 200.208 59.5125 200.208 62.7087C200.208 68.1381 194.827 72.1168 189 72.1168C185.28 72.1168 179.893 70.5398 180.29 69.1433V69.1313Z" fill="#2D2D2D"/>
<path d="M207.953 59.9331V49.8207C207.953 46.2754 207.779 43.2537 207.646 40.7617H213.69C213.557 43.2597 213.383 46.2754 213.383 49.8207V60.1497C213.383 66.2774 216.928 69.1245 221.569 69.1245C226.21 69.1245 230.146 66.2774 230.146 60.1497V54.4616C230.146 49.911 230.104 46.1851 229.881 40.7617H233.469C233.252 46.1911 233.204 49.911 233.204 54.4616V59.8909C233.204 67.9447 227.997 72.104 221.033 72.104C214.863 72.104 207.947 68.8235 207.947 59.9331H207.953Z" fill="#2D2D2D"/>
</svg>
