<svg width="247" height="85" viewBox="0 0 247 85" fill="none" xmlns="http://www.w3.org/2000/svg">
<path d="M28.0981 27.0056C29.4003 27.0056 30.4559 25.9716 30.4559 24.6962C30.4559 23.4207 29.4003 22.3867 28.0981 22.3867C26.7959 22.3867 25.7402 23.4207 25.7402 24.6962C25.7402 25.9716 26.7959 27.0056 28.0981 27.0056Z" fill="#1D6B5C"/>
<path d="M24.4054 33.9435C25.8773 33.9435 27.0705 32.7747 27.0705 31.3331C27.0705 29.8914 25.8773 28.7227 24.4054 28.7227C22.9334 28.7227 21.7402 29.8914 21.7402 31.3331C21.7402 32.7747 22.9334 33.9435 24.4054 33.9435Z" fill="#1D6B5C"/>
<path d="M19.9906 40.2913C21.5474 40.2913 22.8094 39.0552 22.8094 37.5304C22.8094 36.0056 21.5474 34.7695 19.9906 34.7695C18.4339 34.7695 17.1719 36.0056 17.1719 37.5304C17.1719 39.0552 18.4339 40.2913 19.9906 40.2913Z" fill="#1D6B5C"/>
<path d="M30.7627 19.2946C31.7653 19.2946 32.5781 18.4985 32.5781 17.5164C32.5781 16.5344 31.7653 15.7383 30.7627 15.7383C29.7601 15.7383 28.9473 16.5344 28.9473 17.5164C28.9473 18.4985 29.7601 19.2946 30.7627 19.2946Z" fill="#1D6B5C"/>
<path d="M32.1736 11.2644C32.7884 11.2644 33.2867 10.7763 33.2867 10.1742C33.2867 9.5721 32.7884 9.08398 32.1736 9.08398C31.5589 9.08398 31.0605 9.5721 31.0605 10.1742C31.0605 10.7763 31.5589 11.2644 32.1736 11.2644Z" fill="#1D6B5C"/>
<path d="M6.68793 58.3689C7.99013 58.3689 9.04577 57.3349 9.04577 56.0594C9.04577 54.784 7.99013 53.75 6.68793 53.75C5.38572 53.75 4.33008 54.784 4.33008 56.0594C4.33008 57.3349 5.38572 58.3689 6.68793 58.3689Z" fill="#1D6B5C"/>
<path d="M10.4425 52.0899C11.9144 52.0899 13.1076 50.9212 13.1076 49.4795C13.1076 48.0379 11.9144 46.8691 10.4425 46.8691C8.97056 46.8691 7.77734 48.0379 7.77734 49.4795C7.77734 50.9212 8.97056 52.0899 10.4425 52.0899Z" fill="#1D6B5C"/>
<path d="M14.8598 46.0491C16.4165 46.0491 17.6785 44.813 17.6785 43.2882C17.6785 41.7634 16.4165 40.5273 14.8598 40.5273C13.303 40.5273 12.041 41.7634 12.041 43.2882C12.041 44.813 13.303 46.0491 14.8598 46.0491Z" fill="#1D6B5C"/>
<path d="M4.08495 65.0778C5.08757 65.0778 5.90036 64.2817 5.90036 63.2996C5.90036 62.3176 5.08757 61.5215 4.08495 61.5215C3.08232 61.5215 2.26953 62.3176 2.26953 63.2996C2.26953 64.2817 3.08232 65.0778 4.08495 65.0778Z" fill="#1D6B5C"/>
<path d="M2.67753 71.7312C3.29227 71.7312 3.79061 71.2431 3.79061 70.641C3.79061 70.0389 3.29227 69.5508 2.67753 69.5508C2.06279 69.5508 1.56445 70.0389 1.56445 70.641C1.56445 71.2431 2.06279 71.7312 2.67753 71.7312Z" fill="#1D6B5C"/>
<path d="M8.24541 30.7598H22.0852V31.9636H8.24541C7.90678 31.9636 7.63086 31.6934 7.63086 31.3617C7.63086 31.03 7.90678 30.7598 8.24541 30.7598Z" fill="#1D6B5C"/>
<path d="M14.0813 24.0957H27.9212V25.2996H14.0813C13.7427 25.2996 13.4668 25.0293 13.4668 24.6976C13.4668 24.366 13.7427 24.0957 14.0813 24.0957Z" fill="#1D6B5C"/>
<path d="M18.2845 16.9121H32.1243V18.116H18.2845C17.9458 18.116 17.6699 17.8457 17.6699 17.514C17.6699 17.1824 17.9458 16.9121 18.2845 16.9121Z" fill="#1D6B5C"/>
<path d="M18.0983 56.6641H5.54093V55.4602H18.0983C18.437 55.4602 18.7129 55.7305 18.7129 56.0621C18.7129 56.3938 18.437 56.6641 18.0983 56.6641Z" fill="#1D6B5C"/>
<path d="M14.5788 63.9023H4.89659V62.6985H14.5788C14.9174 62.6985 15.1934 62.9687 15.1934 63.3004C15.1934 63.6321 14.9174 63.9023 14.5788 63.9023Z" fill="#1D6B5C"/>
<path d="M23.4026 50.7148C25.8953 59.3077 34.8219 72.6821 12.043 84.9111C20.6968 76.435 26.19 69.5497 23.4026 50.7148Z" fill="#629B96"/>
<path d="M4.89944 38.1702C0.679142 29.909 -7.76458 13.399 16.651 0.976562C2.48829 14.8485 3.44459 33.1029 4.89944 38.1702Z" fill="#629B96"/>
<path d="M77.079 16.8747C77.1923 17.3743 77.2112 18.2255 77.1734 18.7251C76.7956 18.7251 76.3989 18.7066 75.9455 18.7066C75.6999 18.7066 74.2453 18.7066 72.4506 18.7251C72.4884 20.9825 72.6395 26.293 72.6584 27.2367C72.6773 28.3654 72.1861 28.939 70.9393 28.939C70.0325 28.939 68.4456 28.8095 67.7088 28.6985C67.5577 28.1989 67.4444 27.2367 67.4255 26.6816C68.4456 26.9407 69.6924 27.0887 70.0703 27.0887C70.5614 27.0887 70.7693 26.9406 70.7693 26.3855C70.7693 26.3855 70.7693 25.96 70.637 20.3164C69.0879 22.5923 66.1597 25.1828 62.9104 26.9221C62.3626 26.6076 61.6447 25.8304 61.3613 25.3493C64.9129 23.9431 67.8978 21.2231 69.5413 18.7436C67.1043 18.7621 64.7807 18.7991 64.2706 18.7991C63.9683 18.7991 62.9104 18.8176 62.3437 18.8176C62.2303 18.2625 62.1548 17.5038 62.1737 16.9487C62.7593 16.9857 63.3449 17.0042 64.0061 17.0042C64.7429 17.0227 67.7466 17.0042 70.5426 16.9672C70.4859 15.82 70.4481 14.4137 70.3348 13.5996C70.8259 13.5626 71.8838 13.6366 72.4317 13.7291C72.4128 14.3952 72.4128 15.6535 72.4128 16.9672C74.0186 16.9487 75.2843 16.9302 75.6243 16.9302L77.079 16.8747Z" fill="#2D2D2D"/>
<path d="M83.2209 20.3727C87.4526 20.3912 94.0457 20.3172 95.8026 20.2802C95.897 20.7428 95.9348 21.9085 95.8782 22.4081C93.2145 22.2971 82.9186 22.4451 80.5572 22.4266C80.4628 21.9085 80.3683 20.8538 80.3872 20.2617C80.9162 20.2987 82.163 20.3727 83.2209 20.3727Z" fill="#2D2D2D"/>
<path d="M110.915 16.1544C111.595 16.1359 111.784 16.1174 112.124 16.0434C112.54 16.284 112.993 16.6726 113.277 17.0426C112.918 18.3934 111.822 21.1134 110.065 23.3708C110.613 23.8334 111.142 24.296 111.614 24.7586C111.369 25.3137 110.821 25.9428 110.254 26.2574C109.857 25.8318 109.366 25.3322 108.78 24.8326C106.778 26.868 104.379 28.3668 101.696 29.2735C101.205 28.9774 100.43 28.2743 100.053 27.6637C102.452 27.0715 105.097 25.8503 107.364 23.6484C106.211 22.7602 104.964 21.8906 103.774 21.2244C104.058 20.7988 104.624 20.2437 105.002 19.9477C106.155 20.5768 107.42 21.3724 108.61 22.2421C109.933 20.5398 110.764 18.6339 110.991 17.7457L105.323 17.8198C104.001 19.5591 102.357 21.1504 100.789 22.0941C100.223 21.8721 99.4481 21.2614 99.127 20.7988C102.301 19.189 104.775 16.0064 105.72 13.1384C106.419 13.3049 107.08 13.601 107.571 13.9895C107.288 14.6927 106.891 15.4513 106.419 16.2285C110.367 16.1915 110.915 16.1359 110.915 16.1359V16.1544ZM113.144 13.712C113.56 14.2671 114.089 15.3588 114.316 15.9694C114.108 16.136 113.654 16.321 113.314 16.3765C113.031 15.6548 112.597 14.7667 112.143 14.1006C112.464 13.9525 112.842 13.786 113.144 13.712ZM116.356 15.2108C116.129 15.3773 115.695 15.5623 115.317 15.6364C115.034 14.8777 114.599 14.045 114.183 13.4344C114.486 13.2679 114.863 13.0829 115.166 13.0273C115.581 13.5639 116.11 14.5816 116.356 15.2108Z" fill="#2D2D2D"/>
<path d="M120.998 20.3727C125.23 20.3912 131.823 20.3172 133.58 20.2802C133.674 20.7428 133.712 21.9085 133.655 22.4081C130.992 22.2971 120.696 22.4451 118.335 22.4266C118.24 21.9085 118.146 20.8538 118.165 20.2617C118.694 20.2987 119.94 20.3727 120.998 20.3727Z" fill="#2D2D2D"/>
<path d="M151.267 24.1643C151.021 24.7009 150.435 25.4966 149.944 25.9222C148.962 24.9045 147.885 23.9978 146.279 22.8321C144.579 25.182 141.802 27.569 139.195 28.8087C138.609 28.4941 137.892 27.8465 137.457 27.2359C140.404 26.1442 143.011 23.9423 144.692 21.7218C143.238 20.7782 141.575 19.8715 140.102 19.1869C140.461 18.6503 140.952 18.0211 141.349 17.6511C142.463 18.2062 144.371 19.2794 145.769 20.112C146.978 18.0582 147.772 15.7822 148.093 14.0059C148.867 14.1909 149.718 14.635 150.095 14.894C149.585 16.6519 148.697 18.9463 147.375 21.1667C148.811 22.1474 150.341 23.2946 151.267 24.1643Z" fill="#2D2D2D"/>
<path d="M165.377 18.8556C165.358 24.3327 165.377 27.0897 165.377 27.0897C165.377 27.7188 165.415 28.533 165.434 29.0881C164.905 29.1621 163.753 29.1621 163.11 29.0881C163.148 28.681 163.186 28.0704 163.224 27.1267C163.262 25.8315 163.299 23.6851 163.28 20.2434C161.41 21.3351 159.219 22.3158 157.386 22.8894C156.914 22.5008 156.177 21.6127 155.932 21.0946C158.142 20.6875 160.768 19.6328 162.751 18.3745C164.848 17.0608 166.983 15.0994 167.871 13.6191C168.4 13.9892 169.08 14.7108 169.345 15.1919C168.457 16.2836 167.096 17.6159 165.377 18.8556Z" fill="#2D2D2D"/>
<path d="M181.472 18.9852C183.909 19.6883 186.478 20.669 188.273 21.5017C188.141 22.0938 187.763 23.0004 187.423 23.4445C185.742 22.5378 183.38 21.5942 181.472 21.0206C181.453 23.7406 181.453 26.3311 181.453 26.9787C181.453 27.5153 181.491 28.496 181.529 29.1806C180.962 29.2361 179.791 29.1806 179.205 29.1066C179.262 28.533 179.318 27.6818 179.337 26.9417C179.394 25.4799 179.47 17.0423 179.451 15.8581C179.451 15.2659 179.432 14.4518 179.337 13.7302C179.923 13.6932 181.038 13.7672 181.548 13.8412C181.51 14.4333 181.491 16.5797 181.472 18.9852ZM186.535 17.5234C186.195 16.7647 185.571 15.6915 185.137 15.0439C185.439 14.8589 185.893 14.6553 186.176 14.5628C186.573 15.0809 187.328 16.3762 187.593 17.0238C187.366 17.1903 186.932 17.4309 186.535 17.5234ZM189.803 16.0061C189.576 16.2096 189.142 16.4317 188.764 16.5612C188.405 15.8211 187.782 14.7479 187.328 14.1187C187.631 13.9337 188.065 13.6932 188.349 13.6191C188.783 14.1557 189.501 15.3585 189.803 16.0061Z" fill="#2D2D2D"/>
<path d="M196.654 22.1913V20.341C195.816 21.112 194.821 21.8089 193.965 22.2407C193.738 21.9138 193.316 21.4512 193.008 21.2168C194.022 20.8221 195.262 20.0696 196.119 19.3048H193.864V16.0358H196.66V15.3018H193.291V14.1546H196.66V13.0938L198.512 13.1986C198.493 13.3343 198.392 13.4206 198.127 13.4577V14.1608H201.585V15.308H198.127V16.042H201.024V17.8368C202.069 16.7575 202.964 14.9441 203.448 13.0999L205.231 13.581C205.18 13.6982 205.054 13.7845 204.828 13.766C204.689 14.2286 204.513 14.7036 204.324 15.1661H209.122V16.4491H207.951C207.605 17.6826 207.044 18.7435 206.307 19.6132C207.126 20.2484 208.108 20.7604 209.292 21.0996C208.996 21.3895 208.562 21.9693 208.367 22.364C207.164 21.9384 206.15 21.3217 205.294 20.5877C204.336 21.3895 203.165 21.9878 201.786 22.4195C201.591 22.0926 201.175 21.5622 200.911 21.2908C202.258 20.9331 203.404 20.3656 204.317 19.6132C203.776 18.9964 203.341 18.3488 202.989 17.695C202.674 18.1576 202.34 18.6016 201.975 18.9594C201.748 18.688 201.326 18.2069 201.018 17.9478V19.2986H198.241C198.971 19.6378 200.634 20.4582 201.106 20.7172L200.319 21.7102C199.865 21.371 198.902 20.7851 198.121 20.3225V22.1852H196.654V22.1913ZM201.925 26.2621V27.4402H209.173V28.7724H193.146V27.4402H195.923V24.603L197.894 24.7202C197.875 24.8744 197.775 24.9607 197.491 24.9915V27.434H200.3V23.9121H194.261V22.6107H208.052V23.9121H201.925V25.0224H206.742V26.2559H201.925V26.2621ZM195.187 17.0412V18.2871H196.654V17.0412H195.187ZM199.62 17.0412H198.121V18.2871H199.62V17.0412ZM203.776 16.4429C204.11 17.1954 204.595 17.9478 205.243 18.651C205.747 18.0157 206.118 17.2817 206.377 16.4429H203.776Z" fill="#2D2D2D"/>
<path d="M219.3 13.8111C219.231 13.9468 219.093 13.9961 218.847 13.9961C218.413 15.1433 217.89 16.2905 217.311 17.3822L217.852 17.5364C217.833 17.6721 217.714 17.7585 217.468 17.7955V29.132H215.843V19.8617C215.264 20.7191 214.653 21.5024 214.042 22.187C213.885 21.7923 213.463 20.9719 213.236 20.5772C214.823 18.8995 216.429 16.0253 217.411 13.1758L219.294 13.8111H219.3ZM229.779 18.4493H225.642C226.674 21.046 228.4 23.6488 230.201 25.0489C229.798 25.3388 229.256 25.9062 228.96 26.3133C227.304 24.7898 225.749 22.224 224.685 19.541V24.4814H227.254V25.937H224.685V29.132H223.06V25.937H220.51V24.4814H223.06V19.6397C221.958 22.3412 220.39 24.8392 218.696 26.3626C218.419 25.9864 217.877 25.4066 217.506 25.1291C219.338 23.729 221.083 21.0953 222.153 18.4431H218.293V16.8888H223.06V13.2806L225.088 13.3978C225.069 13.5335 224.949 13.6384 224.685 13.6692V16.8826H229.785V18.437L229.779 18.4493Z" fill="#2D2D2D"/>
<path d="M58.2877 65.5771V47.5699C58.2877 46.5719 57.9184 46.0729 57.0841 46.0729C54.4923 46.0729 50.9262 46.1664 47.1754 46.4845C46.6659 46.5282 46.4812 46.4409 46.5704 46.1228L47.2199 43.6278C47.3155 43.2661 47.4046 43.0852 47.8695 43.1289C50.8816 43.2224 52.2253 43.2224 59.1665 43.2224H63.8917C70.6992 43.2224 72.2275 43.2224 75.2396 43.1289C75.7045 43.0852 75.7937 43.2224 75.7045 43.6278L75.1951 46.2163C75.1505 46.4409 75.0104 46.5344 74.5009 46.4908C70.7501 46.1727 67.5087 46.0791 65.0507 46.0791C64.2164 46.0791 63.8471 46.5781 63.8471 47.5761V65.5834C63.8471 69.2572 64.1719 72.3884 64.261 74.9706H57.9184C58.0585 72.3821 58.2877 69.2572 58.2877 65.5834V65.5771Z" fill="#2D2D2D"/>
<path d="M83.9 67.4849L91.2615 51.1118C92.7899 47.6625 93.4394 45.3048 93.6241 43.7205C93.6687 43.2652 96.961 42.7225 97.0947 43.0406L107.793 67.5348C108.908 70.0297 110.06 72.481 111.315 74.976H105.112L101.826 67.4911C101.317 66.3559 100.578 66.3123 99.1834 66.3123H89.7841C88.3959 66.3123 87.6062 66.3123 87.1413 67.4911L84.1802 74.976H80.3848C81.5883 72.481 82.7919 69.9861 83.9063 67.4911L83.9 67.4849ZM90.1535 63.7612H98.8587C99.5082 63.7612 100.202 63.6676 99.9221 63.0376L94.5029 50.3384L89.0836 63.0376C88.8034 63.6739 89.4975 63.7612 90.1471 63.7612H90.1535Z" fill="#2D2D2D"/>
<path d="M119.182 74.9687C119.322 72.3802 119.462 69.2553 119.462 65.5815V52.6077C119.462 48.9339 119.322 45.8028 119.182 43.2205C123.302 43.3577 128.441 43.127 130.803 43.127C142.011 43.127 148.08 49.6575 148.08 58.4147C148.08 67.172 142.011 75.0623 130.759 75.0623C128.536 75.0623 123.302 74.8378 119.182 74.9687ZM130.3 72.6547C138.776 72.6547 142.527 68.6628 142.527 60.997C142.527 52.3333 137.713 45.5283 128.447 45.5283C126.085 45.5283 125.021 46.071 125.021 47.9297V69.8853C125.021 71.8812 126.734 72.6547 130.3 72.6547Z" fill="#2D2D2D"/>
<path d="M157.398 67.4849L164.76 51.1118C166.288 47.6625 166.937 45.3048 167.122 43.7205C167.167 43.2652 170.459 42.7225 170.593 43.0406L181.291 67.5348C182.406 70.0297 183.558 72.481 184.813 74.976H178.61L175.324 67.4911C174.815 66.3559 174.076 66.3123 172.681 66.3123H163.282C161.894 66.3123 161.104 66.3123 160.639 67.4911L157.678 74.976H153.883C155.086 72.481 156.29 69.9861 157.404 67.4911L157.398 67.4849ZM163.652 63.7612H172.357C173.006 63.7612 173.7 63.6676 173.42 63.0376L168.001 50.3384L162.582 63.0376C162.301 63.6739 162.996 63.7612 163.645 63.7612H163.652Z" fill="#2D2D2D"/>
<path d="M190.739 72.6121L191.248 70.7097C192.407 66.4433 193.146 72.662 201.666 72.662C205.787 72.662 207.595 70.8032 207.595 68.2646C207.595 66.0441 206.207 65.0898 202.915 63.0938L198.425 60.3244C193.426 57.237 191.388 55.2909 191.388 51.8853C191.388 46.3527 196.948 42.498 202.685 42.498C206.296 42.498 210.696 43.995 210.372 44.993L209.722 46.9453C208.474 50.8437 208.054 45.5419 200.737 45.5419C197.266 45.5419 195.687 47.2634 195.687 49.5775C195.687 51.6171 196.935 52.7959 200.043 54.6609L204.908 57.6112C209.818 60.6051 211.811 62.6448 211.811 65.9568C211.811 71.5829 206.118 75.7058 199.953 75.7058C196.018 75.7058 190.318 74.0716 190.739 72.6245V72.6121Z" fill="#2D2D2D"/>
<path d="M220.004 63.0809V52.6021C220.004 48.9283 219.82 45.7971 219.68 43.2148H226.073C225.933 45.8034 225.749 48.9283 225.749 52.6021V63.3054C225.749 69.6551 229.499 72.6053 234.409 72.6053C239.319 72.6053 243.484 69.6551 243.484 63.3054V57.4111C243.484 52.6957 243.439 48.8347 243.204 43.2148H246.999C246.77 48.841 246.719 52.6957 246.719 57.4111V63.0372C246.719 71.3828 241.21 75.6928 233.842 75.6928C227.315 75.6928 219.998 72.2935 219.998 63.0809H220.004Z" fill="#2D2D2D"/>
</svg>
